<svg viewBox="0 0 560 310" fill="none" xmlns="http://www.w3.org/2000/svg">
    <rect x="20" y="0" width="100" height="24" rx="12" fill="#1f2937" stroke="#374151" stroke-width="1" />
    <text x="70" y="12" text-anchor="middle" dominant-baseline="central" fill="#f3f4f6" font-size="10" font-weight="600" letter-spacing="0.03em">BROWSER</text>
    <rect x="210" y="0" width="140" height="24" rx="12" fill="#1f2937" stroke="#374151" stroke-width="1" />
    <text x="280" y="12" text-anchor="middle" dominant-baseline="central" fill="#f3f4f6" font-size="10" font-weight="600" letter-spacing="0.03em">SERVER CACHE</text>
    <rect x="440" y="0" width="80" height="24" rx="12" fill="#1f2937" stroke="#374151" stroke-width="1" />
    <text x="480" y="12" text-anchor="middle" dominant-baseline="central" fill="#f3f4f6" font-size="10" font-weight="600" letter-spacing="0.03em">SERVER</text>
    <line x1="70" y1="28" x2="70" y2="300" stroke="#374151" stroke-width="1" stroke-dasharray="4 3" />
    <line x1="280" y1="28" x2="280" y2="300" stroke="#374151" stroke-width="1" stroke-dasharray="4 3" />
    <line x1="480" y1="28" x2="480" y2="300" stroke="#374151" stroke-width="1" stroke-dasharray="4 3" />
    <line x1="74" y1="60" x2="272" y2="60" stroke="#6b7280" stroke-width="1.5" />
    <polygon points="268,56 268,64 276,60" fill="#6b7280" />
    <text x="175" y="52" text-anchor="middle" fill="#9ca3af" font-size="11">request</text>
    <line x1="276" y1="100" x2="78" y2="100" stroke="#f3f4f6" stroke-width="1.5" />
    <polygon points="82,96 82,104 74,100" fill="#f3f4f6" />
    <text x="175" y="92" text-anchor="middle" fill="#f3f4f6" font-size="11" font-weight="600">stale response — instant!</text>
    <line x1="284" y1="100" x2="472" y2="100" stroke="#6b7280" stroke-width="1.5" stroke-dasharray="4 3" />
    <polygon points="468,96 468,104 476,100" fill="#6b7280" />
    <text x="383" y="92" text-anchor="middle" fill="#6b7280" font-size="11" font-style="italic">defer: regenerate</text>
    <rect x="474" y="106" width="12" height="36" rx="2" fill="#1f2937" stroke="#374151" stroke-width="1" />
    <line x1="476" y1="152" x2="288" y2="152" stroke="#6b7280" stroke-width="1.5" />
    <polygon points="292,148 292,156 284,152" fill="#6b7280" />
    <text x="383" y="144" text-anchor="middle" fill="#9ca3af" font-size="11">fresh result cached</text>
    <line x1="20" y1="192" x2="540" y2="192" stroke="#374151" stroke-width="1" stroke-dasharray="2 4" />
    <text x="280" y="208" text-anchor="middle" fill="#6b7280" font-size="10" font-style="italic">later — next visitor</text>
    <line x1="74" y1="238" x2="272" y2="238" stroke="#6b7280" stroke-width="1.5" />
    <polygon points="268,234 268,242 276,238" fill="#6b7280" />
    <text x="175" y="230" text-anchor="middle" fill="#9ca3af" font-size="11">request</text>
    <line x1="276" y1="275" x2="78" y2="275" stroke="#f3f4f6" stroke-width="1.5" />
    <polygon points="82,271 82,279 74,275" fill="#f3f4f6" />
    <text x="175" y="267" text-anchor="middle" fill="#f3f4f6" font-size="11" font-weight="600">fresh response — instant!</text>
</svg>
