<svg viewBox="0 0 560 200" fill="none" xmlns="http://www.w3.org/2000/svg" style="font-family: ui-sans-serif, system-ui, -apple-system, BlinkMacSystemFont, 'Segoe UI', Roboto, 'Helvetica Neue', Arial, sans-serif">
    <rect x="20" y="0" width="100" height="24" rx="12" fill="#1f2937" stroke="#374151" stroke-width="1" />
    <text x="70" y="12" text-anchor="middle" dominant-baseline="central" fill="#f3f4f6" font-size="10" font-weight="600" letter-spacing="0.03em">BROWSER</text>
    <rect x="210" y="0" width="140" height="24" rx="12" fill="#1f2937" stroke="#374151" stroke-width="1" />
    <text x="280" y="12" text-anchor="middle" dominant-baseline="central" fill="#f3f4f6" font-size="10" font-weight="600" letter-spacing="0.03em">SERVER CACHE</text>
    <rect x="440" y="0" width="80" height="24" rx="12" fill="#1f2937" stroke="#374151" stroke-width="1" />
    <text x="480" y="12" text-anchor="middle" dominant-baseline="central" fill="#f3f4f6" font-size="10" font-weight="600" letter-spacing="0.03em">SERVER</text>
    <line x1="70" y1="28" x2="70" y2="196" stroke="#374151" stroke-width="1" stroke-dasharray="4 3" />
    <line x1="280" y1="28" x2="280" y2="196" stroke="#374151" stroke-width="1" stroke-dasharray="4 3" />
    <line x1="480" y1="28" x2="480" y2="196" stroke="#374151" stroke-width="1" stroke-dasharray="4 3" />
    <line x1="74" y1="56" x2="272" y2="56" stroke="#6b7280" stroke-width="1.5" />
    <polygon points="268,52 268,60 276,56" fill="#6b7280" />
    <text x="175" y="48" text-anchor="middle" fill="#9ca3af" font-size="11">request</text>
    <line x1="284" y1="92" x2="472" y2="92" stroke="#6b7280" stroke-width="1.5" stroke-dasharray="4 3" />
    <polygon points="468,88 468,96 476,92" fill="#6b7280" />
    <text x="383" y="84" text-anchor="middle" fill="#6b7280" font-size="11">cache expired, generate fresh response</text>
    <rect x="474" y="100" width="12" height="30" rx="2" fill="#1f2937" stroke="#374151" stroke-width="1" />
    <text x="498" y="115" fill="#4b5563" font-size="9" font-style="italic">processing</text>
    <text x="175" y="120" text-anchor="middle" fill="#6b7280" font-size="11" font-style="italic">browser waits...</text>
    <line x1="476" y1="144" x2="288" y2="144" stroke="#6b7280" stroke-width="1.5" />
    <polygon points="292,140 292,148 284,144" fill="#6b7280" />
    <text x="383" y="136" text-anchor="middle" fill="#9ca3af" font-size="11">fresh response</text>
    <line x1="276" y1="180" x2="78" y2="180" stroke="#f3f4f6" stroke-width="1.5" />
    <polygon points="82,176 82,184 74,180" fill="#f3f4f6" />
    <text x="175" y="172" text-anchor="middle" fill="#f3f4f6" font-size="11" font-weight="600">fresh response</text>
</svg>
