<svg viewBox="0 0 560 220" fill="none" xmlns="http://www.w3.org/2000/svg" style="font-family: ui-sans-serif, system-ui, -apple-system, BlinkMacSystemFont, 'Segoe UI', Roboto, 'Helvetica Neue', Arial, sans-serif">
    <text x="0" y="16" fill="#f3f4f6" font-size="14" font-weight="600">Regular cache</text>
    <rect x="0" y="28" width="340" height="34" rx="6" fill="#1f2937" stroke="#374151" stroke-width="1" />
    <rect x="340" y="28" width="220" height="34" rx="6" fill="none" stroke="#374151" stroke-width="1" />
    <text x="170" y="45" text-anchor="middle" dominant-baseline="central" fill="#f3f4f6" font-size="12">Cached on server</text>
    <text x="450" y="45" text-anchor="middle" dominant-baseline="central" fill="#6b7280" font-size="12">Expired</text>
    <line x1="420" y1="76" x2="420" y2="64" stroke="#6b7280" stroke-width="2" />
    <polygon points="416,65 424,65 420,61" fill="#6b7280" />
    <text x="420" y="89" text-anchor="middle" fill="#9ca3af" font-size="11" font-weight="600">browser waits</text>
    <text x="0" y="124" fill="#f3f4f6" font-size="14" font-weight="600">Flexible cache</text>
    <rect x="0" y="136" width="300" height="34" rx="6" fill="#1f2937" stroke="#374151" stroke-width="1" />
    <rect x="300" y="136" width="150" height="34" rx="6" fill="#1f2937" stroke="#6b7280" stroke-width="1" stroke-dasharray="4 3" />
    <rect x="450" y="136" width="110" height="34" rx="6" fill="none" stroke="#374151" stroke-width="1" />
    <text x="150" y="153" text-anchor="middle" dominant-baseline="central" fill="#f3f4f6" font-size="12">Cached on server</text>
    <text x="375" y="153" text-anchor="middle" dominant-baseline="central" fill="#9ca3af" font-size="12">Grace</text>
    <text x="505" y="153" text-anchor="middle" dominant-baseline="central" fill="#6b7280" font-size="12">Expired</text>
    <line x1="375" y1="184" x2="375" y2="172" stroke="#f3f4f6" stroke-width="2" />
    <polygon points="371,173 379,173 375,169" fill="#f3f4f6" />
    <text x="375" y="197" text-anchor="middle" fill="#f3f4f6" font-size="11" font-weight="600">still instant!</text>
    <text x="375" y="209" text-anchor="middle" fill="#6b7280" font-size="10">server regenerates via defer</text>
</svg>
